<?xml version="1.0" encoding="UTF-8" standalone="no"?>
<!DOCTYPE svg PUBLIC "-//W3C//DTD SVG 20010904//EN" "http://www.w3.org/TR/2001/REC-SVG-20010904/DTD/svg10.dtd">

<svg xmlns="http://www.w3.org/2000/svg" width="3.80556in" height="3.79167in" viewBox="0 0 274 273">
<circle cx="75" cy="130" r="14" fill="none" stroke="blue" stroke-width="2.5"/>
<circle cx="205" cy="130" r="10" fill="none" stroke="blue" stroke-width="3"/>
  <path id="canopener" fill="none" stroke="blue" stroke-width="1" 
        d="M 74.75,175.00
           C 74.75,175.00 88.50,195.06 88.50,195.06
             66.81,202.56 99.27,229.23 99.81,204.62
             105.62,204.50 110.56,221.00 110.38,229.44
             102.00,230.44 84.25,228.43 75.94,220.69
             75.94,220.69 45.50,175.00 45.50,175.00M 315.00,127.50" />
  <path id="blade" fill="none" stroke="blue" stroke-width="1" d="M 228.75,86.00
           C 228.75,86.00 140.25,27.25 140.25,27.25
             130.12,21.38 118.00,19.00 99.75,18.00
             103.19,22.88 112.50,36.50 124.25,44.00
             124.25,44.00 199.50,86.00 199.50,86.00" />
  <path id="body" fill="none" stroke="blue" stroke-width="1" d="M 38.93,170.00
           C 38.93,170.00 211.07,170.00 211.07,170.00
             244.50,163.00 272.00,98.25 235.07,91.00
             235.07,91.00 66.67,91.00 66.67,91.00
             27.67,95.00 1.93,165.00 38.93,170.00M 319.00,138.50" />
  <path id="perf" fill="none" stroke="blue" stroke-width="1" d="M 167.12,86.00
           C 167.12,86.00 90.20,41.64 92.50,41.25
             72.12,29.00 54.00,27.75 30.12,34.12
             31.37,32.67 82.88,32.75 76.50,50.75
             74.00,57.50 55.33,60.91 57.75,48.62
             56.62,48.75 55.88,60.12 63.50,63.38
             71.00,67.00 103.62,68.38 133.62,86.00" />
  <path id="saw" fill="none" stroke="blue" stroke-width="1" 



        d="M 71.94,220.69M 131.62,175.00
           C 131.62,175.00 129.38,177.00 129.38,177.00
             129.38,177.00 134.00,177.12 134.00,177.12
             128.50,180.88 130.24,188.51 138.62,186.25
             138.62,186.25 138.25,189.75 138.25,189.75
             138.25,189.75 145.88,189.62 145.88,189.62
             145.88,189.62 145.00,194.62 145.00,194.62
             138.58,199.28 146.62,206.50 154.88,203.25
             154.88,203.25 154.75,207.00 154.75,206.88
             154.75,206.75 160.50,206.62 160.50,206.62
             154.88,214.62 157.25,221.88 173.00,218.75
             168.50,226.75 167.62,236.38 177.38,232.50
             177.38,232.50 187.25,235.50 187.25,235.50
             191.91,248.31 170.33,250.89 164.62,245.38
             164.62,245.38 103.38,176.50 103.38,176.50M 311.00,127.50" />

  <path id="screw" fill="none" stroke="blue" stroke-width="1" d="M 151.25,175.00
           C 151.02,180.54 158.60,188.94 158.88,182.50
             157.27,182.22 156.96,174.58 159.38,175.00
             159.38,175.00 163.38,175.00 163.38,175.00
             162.57,177.28 165.82,188.36 166.25,187.12
             167.00,190.27 172.52,192.86 171.12,187.00
             170.34,188.09 168.50,176.25 169.50,175.00
             169.50,175.00 175.16,175.09 175.16,175.09
             175.02,174.96 176.42,189.99 178.16,192.09
             178.69,193.53 184.54,194.32 184.03,191.69
             181.46,190.90 180.46,174.72 181.38,175.00M 187.31,177.28
           C 186.08,177.83 187.72,193.69 189.06,197.41
             190.78,201.09 196.87,198.15 196.75,197.50
             194.16,196.54 193.94,179.00 194.00,177.62M 199.25,181.88
           C 199.16,181.88 200.22,200.41 201.75,201.84
             203.34,203.38 206.43,202.88 206.75,201.62
             207.20,201.77 208.32,194.92 207.38,194.62
             207.40,195.10 206.28,195.73 206.22,194.69
             206.22,194.69 205.88,182.50 205.88,182.50M 211.56,186.25
           C 211.19,190.75 212.91,203.81 213.94,206.12
             215.14,209.20 219.41,208.19 220.25,206.88
             221.38,205.12 221.34,197.54 221.00,197.50
             220.87,198.51 218.37,198.74 218.50,197.75
             218.50,197.75 217.88,186.75 217.88,186.75M 224.25,191.50
           C 224.25,191.50 228.25,210.38 228.25,210.38
             228.25,210.38 233.38,211.00 233.38,211.00
             233.38,211.00 236.75,202.50 236.75,202.50
             236.75,202.50 247.75,201.50 247.62,201.62
             247.50,201.75 242.12,199.25 242.12,199.25
             242.12,199.25 233.62,199.50 233.62,199.50
             233.62,199.50 229.50,191.75 229.50,191.88M 219.03,198.31" />
</svg>