<?xml version="1.0" encoding="UTF-8" standalone="no"?>
<!DOCTYPE svg PUBLIC "-//W3C//DTD SVG 20010904//EN" "http://www.w3.org/TR/2001/REC-SVG-20010904/DTD/svg10.dtd">

<svg xmlns="http://www.w3.org/2000/svg" viewBox="0 0 200 200">
  <path id="Cuerpo" fill="rgba(210,12,12,0.779)" stroke="red" stroke-width="1" d="M 79.90,25.91
           C 79.90,18.00 92.04,5.95 103.62,5.95
             116.19,5.95 127.35,17.45 127.35,25.91
             127.35,25.91 127.35,155.60 127.35,155.60
             127.35,161.41 116.15,175.55 103.66,175.59
             92.31,175.55 79.90,164.09 79.90,155.60
             79.90,155.60 79.90,26.03 79.90,26.03M 124.85,17.29" />

  <path id="lomo" fill="none" stroke="grey" stroke-width="1.1" d="M 130.90,104.47
           C 130.90,104.47 130.85,25.91 130.85,25.91
             130.65,15.23 116.80,5.95 110.98,5.95M 123.50,20.14" />

  <path id="Blade Izq" fill="rgba(220,218,218,0.845)" d="M 77.15,63.39
           C 77.15,63.39 36.02,118.89 36.02,118.89
             29.17,129.66 21.11,136.89 6.75,137.44
             6.05,132.06 9.10,114.92 13.23,109.38
             13.23,109.38 77.15,25.91 77.15,25.91" />

  <path id="Blade derecha" fill="rgba(220,218,218,0.845)" d="M 129.60,110.02
           C 129.60,110.02 166.72,57.88 166.72,57.88
             173.58,47.11 186.60,40.83 200.96,40.28
             197.96,45.86 194.84,61.14 193.90,67.68
             193.90,67.68 129.51,155.75 129.51,155.75" />

</svg>